<?xml version="1.0" encoding="UTF-8" standalone="no"?>
<svg
   width="48"
   height="48"
   version="1.1"
   id="svg21"
   sodipodi:docname="novaiweb.svg"
   inkscape:version="1.3.2 (091e20ef0f, 2023-11-25)"
   inkscape:export-filename="novaiweb.png"
   inkscape:export-xdpi="240"
   inkscape:export-ydpi="240"
   xmlns:inkscape="http://www.inkscape.org/namespaces/inkscape"
   xmlns:sodipodi="http://sodipodi.sourceforge.net/DTD/sodipodi-0.dtd"
   xmlns:xlink="http://www.w3.org/1999/xlink"
   xmlns="http://www.w3.org/2000/svg"
   xmlns:svg="http://www.w3.org/2000/svg">
  <sodipodi:namedview
     id="namedview21"
     pagecolor="#ffffff"
     bordercolor="#000000"
     borderopacity="0.25"
     inkscape:showpageshadow="2"
     inkscape:pageopacity="0.0"
     inkscape:pagecheckerboard="0"
     inkscape:deskcolor="#d1d1d1"
     showguides="false"
     inkscape:zoom="16.75"
     inkscape:cx="24"
     inkscape:cy="20.179104"
     inkscape:window-width="1920"
     inkscape:window-height="1008"
     inkscape:window-x="0"
     inkscape:window-y="0"
     inkscape:window-maximized="1"
     inkscape:current-layer="svg21" />
  <defs
     id="defs12">
    <linearGradient
       id="a"
       y1="49.849"
       x1="88.5"
       y2="2.602"
       gradientUnits="userSpaceOnUse"
       x2="38.19"
       gradientTransform="matrix(0.52778,0,0,0.5,2.2246552,-1.6030227)">
      <stop
         stop-color="#046526"
         id="stop1" />
      <stop
         offset="1"
         stop-color="#22d156"
         id="stop2" />
    </linearGradient>
    <linearGradient
       id="b"
       y1="-434.3"
       x1="-424.95"
       y2="-426.88"
       gradientUnits="userSpaceOnUse"
       x2="-415.03"
       gradientTransform="matrix(.99522.0977-.0977.99522 387.52 478.56)">
      <stop
         id="stop3" />
      <stop
         offset="1"
         stop-opacity="0"
         id="stop4" />
    </linearGradient>
    <linearGradient
       id="c"
       y1="546.23"
       x1="429.98"
       y2="529.92"
       gradientUnits="userSpaceOnUse"
       x2="413.68">
      <stop
         stop-color="#633677"
         id="stop5" />
      <stop
         offset="1"
         stop-color="#824bac"
         id="stop6" />
    </linearGradient>
    <linearGradient
       xlink:href="#b"
       id="d"
       y1="-434.3"
       x1="-424.95"
       y2="-426.88"
       gradientUnits="userSpaceOnUse"
       x2="-415.03"
       gradientTransform="matrix(0.99522,0.0977,-0.0977,0.99522,799.06,1009.51)" />
    <linearGradient
       id="e"
       y1="541.8"
       y2="505.8"
       gradientUnits="userSpaceOnUse"
       x2="0">
      <stop
         stop-color="#2e62f2"
         id="stop7" />
      <stop
         offset="1"
         stop-color="#29cdfa"
         id="stop8" />
    </linearGradient>
    <linearGradient
       id="f"
       y1="528.56"
       x1="414.75"
       y2="518.69"
       gradientUnits="userSpaceOnUse"
       x2="399.4">
      <stop
         stop-color="#292c2f"
         id="stop9" />
      <stop
         offset="1"
         stop-opacity="0"
         id="stop10" />
    </linearGradient>
    <linearGradient
       xlink:href="#f"
       id="g"
       y1="519.31"
       x1="417.57"
       y2="528.31"
       gradientUnits="userSpaceOnUse"
       x2="426.57" />
    <linearGradient
       id="h"
       y1="541.8"
       y2="505.8"
       gradientUnits="userSpaceOnUse"
       x2="0">
      <stop
         stop-color="#7cbaf8"
         id="stop11" />
      <stop
         offset="1"
         stop-color="#f4fcff"
         id="stop12" />
    </linearGradient>
    <linearGradient
       inkscape:collect="always"
       xlink:href="#f"
       id="linearGradient21"
       gradientUnits="userSpaceOnUse"
       x1="414.75"
       y1="528.56"
       x2="399.4"
       y2="518.69" />
    <filter
       style="color-interpolation-filters:sRGB;"
       inkscape:label="Colorize"
       id="filter24"
       x="0"
       y="0"
       width="1"
       height="1">
      <feComposite
         in2="SourceGraphic"
         operator="arithmetic"
         k1="0"
         k2="1"
         result="composite1"
         id="feComposite23" />
      <feColorMatrix
         in="composite1"
         values="1"
         type="saturate"
         result="colormatrix1"
         id="feColorMatrix23" />
      <feFlood
         flood-opacity="1"
         flood-color="rgb(36,158,0)"
         result="flood1"
         id="feFlood23" />
      <feBlend
         in="flood1"
         in2="colormatrix1"
         mode="multiply"
         result="blend1"
         id="feBlend23" />
      <feBlend
         in2="blend1"
         mode="screen"
         result="blend2"
         id="feBlend24" />
      <feColorMatrix
         in="blend2"
         values="1"
         type="saturate"
         result="colormatrix2"
         id="feColorMatrix24" />
      <feComposite
         in="colormatrix2"
         in2="SourceGraphic"
         operator="in"
         k2="1"
         result="composite2"
         id="feComposite24" />
    </filter>
  </defs>
  <g
     transform="matrix(0.94445,0,0,0.94445,-361.872,-470.7)"
     id="g14">
    <rect
       width="36"
       x="390.57001"
       y="505.79999"
       fill="url(#e)"
       rx="18"
       height="36"
       id="rect12"
       style="fill:url(#e)" />
    <g
       fill-rule="evenodd"
       id="g13">
      <path
         opacity="0.2"
         fill="url(#f)"
         d="m 411.91,506.12 -3.824,0.49 -5.316,3.069 -1.931,3.345 c 0,0 -2.538,1.788 -2.92,1.685 -3.236,-0.038 -4.974,0.855 -5.889,1.989 -0.387,0.904 -0.69,1.851 -0.927,2.825 -0.006,0.978 0.208,1.738 0.208,1.738 9.08,8.172 18.16,11.695 27.23,17.54 0.572,-0.38 1.117,-0.792 1.64,-1.233 0.03,-0.025 0.058,-0.052 0.088,-0.078 0.463,-0.396 0.904,-0.818 1.323,-1.258 0.093,-0.097 0.18,-0.199 0.271,-0.299 0.363,-0.399 0.711,-0.812 1.037,-1.243 0.074,-0.097 0.147,-0.195 0.218,-0.294 0.354,-0.488 0.687,-0.993 0.992,-1.517 0.023,-0.039 0.048,-0.076 0.07,-0.116 1.369,-2.396 2.203,-5.141 2.345,-8.08 0,-0.008 0.002,-0.017 0.003,-0.025 v -0.003 l -2.345,-9.819 c -2.571,-4.485 -7.01,-7.741 -12.277,-8.721"
         id="path12"
         style="fill:url(#linearGradient21)" />
      <path
         opacity="0.2"
         fill="url(#g)"
         d="m 425.3,517.17 -5.537,8.563 5.296,5.296 c 0.966,-2.211 1.512,-4.652 1.512,-7.227 0,-2.347 -0.46,-4.579 -1.271,-6.632"
         id="path13"
         style="fill:url(#g)" />
    </g>
    <path
       fill="url(#h)"
       d="m 408.32,505.81 c -1.379,0.019 -2.714,0.198 -4,0.507 -0.338,0.304 -0.838,0.458 -1.399,0.442 -0.201,0.192 -0.154,0.55 -0.264,0.814 -0.092,0.221 -0.416,0.458 -0.638,0.439 -0.164,-0.014 -0.351,-0.244 -0.352,-0.397 -10e-4,-0.184 0.256,-0.287 0.116,-0.492 -1.433,0.581 -2.766,1.347 -3.985,2.258 0.327,-0.12 0.688,-0.323 0.984,-0.329 0.049,-0.001 0.094,0.004 0.138,0.015 0.199,0.052 0.724,0.627 0.286,0.814 -0.041,0.018 -0.642,0.083 -0.746,0.065 -0.152,-0.026 -0.243,-0.236 -0.397,-0.264 -0.258,-0.045 -0.586,0.223 -0.809,0.103 -2.453,1.98 -4.356,4.596 -5.497,7.599 0.105,-0.061 0.212,-0.124 0.306,-0.173 0.321,-0.167 0.593,-0.437 0.967,-0.462 0.187,-0.004 0.456,0.05 0.635,0.088 0.165,0.034 0.299,0.145 0.442,0.156 0.406,0.031 0.502,-0.285 0.834,-0.462 0.342,0.048 0.57,-0.057 0.879,-0.023 0.211,0.023 0.363,0.249 0.527,0.261 0.138,0.014 0.261,-0.128 0.394,-0.108 0.13,0.02 0.353,0.303 0.374,0.462 0.027,0.198 -0.145,0.376 -0.088,0.593 0.207,0.211 0.583,0.253 0.879,0.374 0.193,-0.159 0.026,-0.453 0,-0.683 -0.004,-0.101 0.014,-0.191 0,-0.284 -0.018,-0.158 -0.087,-0.304 -0.088,-0.439 -0.004,-0.625 0.505,-0.918 0.924,-1.165 0.182,-0.108 0.325,-0.295 0.482,-0.374 0.222,-0.112 0.388,-0.138 0.573,-0.241 0.333,-0.187 0.619,-0.338 0.879,-0.55 0.12,-0.284 0.013,-0.664 0.023,-0.944 0.12,-0.074 0.224,0.033 0.352,0.023 0.201,-0.042 0.218,-0.326 0.331,-0.439 0.066,-0.065 0.247,-0.111 0.329,-0.176 0.2,-0.157 0.265,-0.394 0.439,-0.462 0.063,-0.025 0.208,-0.019 0.306,-0.045 0.13,-0.035 0.315,-0.189 0.527,-0.261 0.138,-0.048 0.455,-0.058 0.507,-0.11 0.065,-0.066 0,-0.252 0.023,-0.352 0.107,-0.496 0.854,-0.601 1.296,-0.768 0.31,-0.117 0.627,-0.332 0.967,-0.266 -0.067,0.236 -0.383,0.153 -0.329,0.439 0.074,0.397 0.605,-0.115 0.746,-0.173 0.268,-0.113 0.728,-0.181 1.08,-0.309 0.308,-0.113 0.861,-0.285 0.57,-0.638 -0.242,-0.014 -0.359,0.284 -0.57,0.374 -0.146,0.023 -0.119,-0.121 -0.244,-0.133 -0.118,-0.014 -0.185,0.109 -0.306,0.088 -0.121,-0.02 -0.29,-0.21 -0.309,-0.352 -0.048,-0.367 0.31,-0.517 0.462,-0.791 -0.1,-0.332 -0.559,-0.069 -0.836,-0.198 0.026,-0.198 0.231,-0.334 0.462,-0.372 0.189,-0.032 0.613,-0.015 0.726,0.085 0.065,0.055 0.005,0.194 0.11,0.286 0.112,0.101 0.249,0.092 0.394,0.068 0.053,-0.25 -0.325,-0.188 -0.284,-0.354 0.297,-0.194 0.779,-0.034 1.143,-0.088 0.209,-0.031 0.43,-0.179 0.615,-0.284 0.176,-0.1 0.406,-0.275 0.593,-0.11 0.051,0.179 -0.164,0.24 -0.264,0.329 -0.336,0.299 -0.683,0.642 -0.944,0.989 0.16,0.156 0.452,0.078 0.723,0.11 0.106,0.014 0.239,0.046 0.352,0.065 0.131,0.023 0.272,0.016 0.374,0.043 0.185,0.045 0.234,0.244 0.417,0.244 0.301,-0.001 0.303,-0.327 0.133,-0.53 0.054,-0.207 0.138,-0.314 0.065,-0.46 -0.135,-0.271 -0.632,-0.014 -0.658,-0.352 -0.016,-0.219 0.184,-0.21 0.264,-0.374 -0.036,-0.423 0.347,-0.454 0.306,-0.834 -0.018,-0.159 -0.153,-0.16 -0.264,-0.309 -0.058,-0.076 -0.084,-0.227 -0.153,-0.286 -0.23,-0.194 -0.697,-0.157 -0.726,-0.527 -0.004,-0.125 0.014,-0.238 0.025,-0.357 -0.212,-0.01 -0.421,-0.03 -0.635,-0.033 z m -8.563,4.312 c 0.103,0.014 0.227,0.124 0.352,0.133 0.117,0.004 0.214,-0.064 0.286,-0.045 0.184,0.048 0.261,0.326 0.088,0.462 -0.144,0.018 -0.201,-0.062 -0.309,-0.043 -0.298,0.051 -0.412,0.635 -0.635,0.615 -0.21,-0.018 -0.324,-0.53 -0.11,-0.683 0.014,-0.133 -0.097,-0.155 -0.09,-0.286 0.063,-0.081 0.244,-0.168 0.419,-0.153 m -0.989,0.068 c 0.061,0.003 0.107,0.016 0.131,0.043 -0.029,0.234 -0.213,0.22 -0.394,0.329 -0.312,0.189 -0.493,0.476 -0.593,0.879 -0.029,0.117 -0.336,0.428 -0.485,0.397 -0.348,-0.073 0.096,-0.716 0.176,-0.814 0.088,-0.108 0.205,-0.204 0.309,-0.329 0.1,-0.121 0.167,-0.284 0.264,-0.352 0.106,-0.073 0.409,-0.16 0.593,-0.153 m 2.602,0.791 c 0.112,0.003 0.21,0.02 0.256,0.065 -0.072,0.29 -0.695,0.213 -0.924,0.108 0.015,-0.109 0.185,-0.139 0.329,-0.153 0.101,-0.004 0.228,-0.023 0.339,-0.02 m -1.424,0.535 c 0.074,-0.003 0.15,0.014 0.229,0.035 -0.202,0.169 -0.421,0.264 -0.768,0.374 -0.167,0.053 -0.456,0.119 -0.485,-0.068 -0.035,-0.229 0.244,-0.175 0.397,-0.196 0.192,-0.026 0.403,-0.138 0.628,-0.146 m 22.08,0.326 c 0.017,0.165 0.019,0.322 -0.025,0.5 -0.06,0.238 -0.274,0.454 -0.264,0.66 0.014,0.106 0.13,0.208 0.156,0.352 0.014,0.076 -0.036,0.24 0,0.309 0.112,0.216 0.416,0.033 0.615,0.065 0.194,0.031 0.419,0.31 0.417,0.527 -0.003,0.152 -0.145,0.404 -0.241,0.55 -0.192,0.291 -0.451,0.304 -0.726,0.46 -0.229,0.13 -0.328,0.347 -0.462,0.573 -0.146,0.244 -0.236,0.392 -0.176,0.746 -0.196,0.39 -0.495,0.628 -0.902,0.814 -0.12,0.054 -0.284,0.073 -0.394,0.153 -0.088,0.063 -0.139,0.234 -0.264,0.374 -0.154,0.172 -0.316,0.243 -0.397,0.374 -0.063,0.101 -0.084,0.304 -0.153,0.439 -0.094,0.185 -0.294,0.275 -0.417,0.462 -0.056,0.087 -0.094,0.261 -0.156,0.374 -0.139,0.253 -0.377,0.435 -0.352,0.658 0.026,0.215 0.27,0.252 0.286,0.439 0.004,0.106 -0.07,0.171 -0.065,0.286 0.004,0.169 0.117,0.287 0.131,0.417 0.033,0.326 -0.112,0.457 -0.173,0.681 -0.029,0.107 -0.017,0.226 -0.045,0.309 -0.054,0.163 -0.282,0.312 -0.286,0.505 -0.003,0.137 0.142,0.247 0.153,0.439 0.004,0.133 -0.066,0.275 -0.043,0.397 0.047,0.239 0.475,0.517 0.66,0.703 0.249,0.249 0.573,0.441 0.681,0.703 0.09,0.222 0.09,0.513 0.264,0.681 0.128,0.124 0.341,0.2 0.505,0.329 0.153,0.12 0.321,0.224 0.485,0.352 0.268,0.209 0.671,0.627 1.097,0.595 0.223,-0.016 0.451,-0.199 0.703,-0.244 0.26,-0.046 0.597,-0.07 0.859,-0.043 0.201,0.02 0.407,0.14 0.615,0.131 0.22,-0.014 0.473,-0.177 0.723,-0.286 0.396,-0.172 0.971,-0.386 1.549,-0.354 0.111,-0.81 0.188,-1.632 0.188,-2.473 0,-3.406 -0.953,-6.574 -2.584,-9.284 -0.076,-0.005 -0.145,-0.016 -0.229,-0.013 -0.223,0.014 -0.589,0.014 -0.593,-0.264 -0.002,-0.228 0.215,-0.278 0.475,-0.294 -0.486,-0.743 -1.03,-1.441 -1.617,-2.102 m -27.475,8.247 c -0.365,0.02 -0.604,0.037 -0.811,0.131 -0.476,0.216 -0.384,0.86 -0.859,1.012 -0.164,0.053 -0.389,0.054 -0.57,0.088 -0.156,0.028 -0.346,0.114 -0.507,0.111 -0.19,-0.004 -0.522,-0.187 -0.635,-0.309 -0.078,-0.084 -0.205,-0.379 -0.289,-0.575 -0.115,0.633 -0.194,1.277 -0.241,1.931 0.039,0.007 0.08,0.018 0.113,0.018 0.208,10e-4 0.431,-0.215 0.66,-0.221 0.539,-0.015 0.773,0.686 1.208,0.902 0.109,0.054 0.253,0.057 0.394,0.088 0.114,0.025 0.199,0.073 0.309,0.11 0.232,0.079 0.517,0.07 0.703,0.153 0.28,0.124 0.485,0.65 0.726,0.791 0.014,0.142 -0.026,0.334 0.023,0.439 0.114,0.154 0.275,0.12 0.462,0.221 0.224,0.121 0.292,0.432 0.505,0.527 0.073,0.033 0.258,0.03 0.374,0.065 0.291,0.088 0.386,0.425 0.635,0.352 0.164,-0.048 0.152,-0.218 0.178,-0.374 0.108,-0.117 0.226,-0.303 0.394,-0.306 0.273,-0.014 0.297,0.282 0.397,0.547 0.056,0.15 0.203,0.281 0.241,0.439 0.068,0.273 0.035,1.09 -0.023,1.253 -0.069,0.2 -0.34,0.285 -0.507,0.507 -0.079,0.104 -0.116,0.256 -0.176,0.329 -0.108,0.131 -0.269,0.165 -0.349,0.286 -0.046,0.068 -0.089,0.214 -0.133,0.306 -0.132,0.28 -0.309,0.478 -0.198,0.814 0.046,0.138 0.263,0.232 0.264,0.394 0.001,0.191 -0.408,0.363 -0.439,0.573 -0.023,0.156 0.126,0.435 0.176,0.638 0.036,0.153 0.326,0.249 0.417,0.352 0.154,0.173 0.278,0.418 0.419,0.635 0.279,0.428 0.497,0.949 0.768,1.364 0.143,0.217 0.344,0.412 0.439,0.638 0.049,0.114 0.043,0.249 0.088,0.352 0.157,0.355 0.85,0.726 1.208,0.902 0.168,0.082 0.354,0.111 0.507,0.196 0.233,0.13 0.693,0.479 0.811,0.683 0.105,0.184 0.17,0.63 0.221,0.922 0.068,0.386 0.004,0.682 0.023,1.1 0.014,0.226 0.085,0.454 0.088,0.681 0.001,0.079 -0.042,0.138 -0.045,0.218 -0.004,0.274 0.069,0.583 0.045,0.859 -0.002,0.059 -0.008,0.104 -0.018,0.156 2.157,0.91 4.53,1.414 7.03,1.414 0.261,0 0.515,-0.029 0.773,-0.04 0.005,-0.041 0.012,-0.082 0.02,-0.116 0.08,-0.223 0.285,-0.297 0.417,-0.462 0.1,-0.124 0.146,-0.27 0.241,-0.394 0.103,-0.135 0.196,-0.255 0.264,-0.374 0.065,-0.401 -0.16,-0.681 -0.065,-1.032 0.105,-0.395 0.65,-0.636 1.032,-0.814 0.132,-0.061 0.267,-0.161 0.374,-0.198 0.265,-0.092 0.594,-0.042 0.836,-0.131 0.412,-0.151 0.455,-0.592 0.658,-0.967 0.096,-0.178 0.222,-0.356 0.241,-0.482 0.016,-0.114 -0.041,-0.22 -0.023,-0.354 0.02,-0.133 0.139,-0.248 0.176,-0.394 0.048,-0.19 0.068,-0.468 0.068,-0.681 0,-0.174 -0.081,-0.328 -0.088,-0.485 -0.028,-0.57 0.206,-0.634 0.417,-0.944 0.106,-0.154 0.145,-0.329 0.218,-0.439 0.354,-0.528 0.969,-0.783 0.924,-1.582 -0.015,-0.264 -0.18,-0.862 -0.374,-0.947 -0.111,-0.048 -0.366,-0.004 -0.527,-0.065 -0.519,-0.194 -0.825,-0.838 -1.364,-0.879 -0.115,-0.014 -0.22,0.047 -0.349,0.045 -0.213,-0.014 -0.535,-0.149 -0.771,-0.176 -0.15,-0.016 -0.349,0.044 -0.439,0 -0.137,-0.067 -0.152,-0.319 -0.264,-0.394 -0.089,-0.061 -0.26,-0.081 -0.394,-0.133 -0.216,-0.083 -0.388,-0.181 -0.638,-0.198 -0.077,-0.004 -0.174,0.037 -0.264,0.023 -0.138,-0.023 -0.247,-0.186 -0.374,-0.264 -0.16,-0.097 -0.308,-0.145 -0.374,-0.284 0.144,-0.473 -0.255,-0.605 -0.352,-0.879 -0.046,-0.128 -0.025,-0.282 -0.065,-0.397 -0.057,-0.164 -0.219,-0.258 -0.397,-0.394 -0.318,-0.245 -0.6,-0.474 -1.055,-0.53 -0.2,-0.025 -0.396,0.06 -0.638,0.045 -0.256,-0.016 -0.577,-0.241 -0.768,-0.46 -0.186,-0.214 -0.277,-0.405 -0.439,-0.507 -0.154,-0.099 -0.357,-0.096 -0.462,-0.196 -0.047,-0.044 -0.038,-0.118 -0.088,-0.221 -0.077,-0.16 -0.207,-0.248 -0.111,-0.439 -0.175,-0.09 -0.18,0.166 -0.372,0.133 -0.171,-0.242 -0.315,-0.357 -0.703,-0.286 -0.178,0.033 -0.278,0.258 -0.485,0.264 -0.17,0.014 -0.303,-0.189 -0.527,-0.221 -0.169,-0.023 -0.362,0.046 -0.482,0.023 -0.188,-0.037 -0.245,-0.194 -0.417,-0.306 -0.126,-0.082 -0.369,-0.223 -0.439,-0.221 -0.221,0.014 -0.378,0.47 -0.683,0.309 -0.148,-0.188 0.241,-0.287 0.065,-0.462 -0.133,-0.133 -0.245,0.06 -0.352,0.133 -0.122,0.084 -0.237,0.169 -0.372,0.218 -0.302,0.113 -0.49,0.054 -0.726,0.176 -0.218,0.113 -0.228,0.303 -0.352,0.527 -0.101,0.184 -0.333,0.451 -0.485,0.462 -0.184,0.014 -0.36,-0.257 -0.527,-0.329 -0.503,-0.218 -0.747,0.193 -1.165,0.198 -0.388,0.014 -0.941,-0.625 -0.922,-0.989 0.004,-0.222 0.127,-0.561 0.153,-0.836 0.023,-0.219 0.173,-0.35 0.176,-0.55 0.004,-0.267 -0.354,-0.473 -0.527,-0.505 -0.411,-0.076 -0.981,0.166 -1.451,-0.023 -0.09,-0.149 0.105,-0.252 0.156,-0.397 0.028,-0.082 0.013,-0.193 0.043,-0.284 0.052,-0.14 0.198,-0.248 0.264,-0.397 0.049,-0.113 0.061,-0.276 0.11,-0.417 0.057,-0.16 0.163,-0.262 0.176,-0.374 0.016,-0.148 -0.04,-0.319 -0.156,-0.417 m 5.876,4.653 c 0.149,0.014 0.167,0.322 0.015,0.347 -0.164,0.026 -0.247,-0.258 -0.088,-0.331 0.027,-0.014 0.051,-0.016 0.073,-0.015"
       id="path14"
       style="fill:url(#h)" />
  </g>
  <path
     fill="url(#a)"
     d="M 26.334655,1.6669773 V 16.666977 h 9 l 6,5 v -5 h 5 V 1.6669773 Z"
     id="path15"
     style="color:#000000;fill:url(#a)" />
  <text
     xml:space="preserve"
     style="fill:#000000"
     x="11.423974"
     y="14.818331"
     id="text22"><tspan
       sodipodi:role="line"
       id="tspan22"
       x="11.423974"
       y="14.818331" /></text>
  <text
     xml:space="preserve"
     style="font-size:16px;fill:#505a00;filter:url(#filter24);fill-opacity:0.88012695"
     x="34.423744"
     y="15.02122"
     id="text23"><tspan
       sodipodi:role="line"
       id="tspan23"
       x="34.423744"
       y="15.02122"
       style="font-style:normal;font-variant:normal;font-weight:normal;font-stretch:normal;font-size:16px;font-family:sans-serif;-inkscape-font-specification:'sans-serif, Normal';font-variant-ligatures:normal;font-variant-caps:normal;font-variant-numeric:normal;font-variant-east-asian:normal;fill:#505a00;fill-opacity:0.88012695">i</tspan></text>
</svg>
